<svg width="59" height="35" viewBox="0 0 59 35" fill="none" xmlns="http://www.w3.org/2000/svg">
<path d="M52.4534 34.6473C51.7099 34.6495 50.9735 34.5039 50.2868 34.2189C49.6001 33.9339 48.9769 33.5153 48.4534 32.9873L29.1234 13.6673L9.79342 32.9873C9.2748 33.5417 8.64995 33.9862 7.95606 34.2941C7.26217 34.6021 6.51341 34.7673 5.75435 34.78C4.9953 34.7926 4.24145 34.6524 3.53767 34.3678C2.8339 34.0831 2.19459 33.6598 1.65778 33.123C1.12097 32.5862 0.697632 31.9468 0.412969 31.2431C0.128306 30.5393 -0.0118688 29.7855 0.000786553 29.0264C0.0134419 28.2673 0.178669 27.5186 0.486634 26.8247C0.7946 26.1308 1.23901 25.5059 1.79342 24.9873L25.1234 1.64733C26.1873 0.592103 27.625 0 29.1234 0C30.6218 0 32.0596 0.592103 33.1234 1.64733L56.4634 24.9773C57.2526 25.7702 57.7897 26.7789 58.0069 27.8763C58.2242 28.9737 58.1119 30.1109 57.6843 31.1447C57.2567 32.1784 56.5328 33.0626 55.6038 33.6859C54.6748 34.3092 53.5821 34.6437 52.4634 34.6473H52.4534ZM29.1234 11.2473C29.2557 11.2479 29.3866 11.2747 29.5085 11.3262C29.6304 11.3777 29.7408 11.4528 29.8334 11.5473L49.8334 31.5473C50.523 32.2331 51.4559 32.618 52.4284 32.618C53.4009 32.618 54.3339 32.2331 55.0234 31.5473C55.3659 31.2138 55.6393 30.816 55.8281 30.3768C56.0168 29.9375 56.1172 29.4654 56.1234 28.9873C56.1249 28.0132 55.7401 27.0782 55.0534 26.3873L31.7134 3.05733C31.3735 2.71687 30.9698 2.44678 30.5253 2.26249C30.0809 2.07821 29.6045 1.98335 29.1234 1.98335C28.6423 1.98335 28.1659 2.07821 27.7215 2.26249C27.2771 2.44678 26.8734 2.71687 26.5334 3.05733L3.19342 26.3873C2.51419 27.0774 2.13522 28.008 2.13906 28.9763C2.14291 29.9446 2.52926 30.8721 3.21395 31.5568C3.89864 32.2415 4.82617 32.6278 5.79445 32.6317C6.76274 32.6355 7.69331 32.2566 8.38342 31.5773L28.3834 11.5773C28.4769 11.4737 28.5911 11.3909 28.7185 11.334C28.8459 11.2772 28.9839 11.2477 29.1234 11.2473Z" fill="url(#paint0_linear_28_33)"/>
<defs>
<linearGradient id="paint0_linear_28_33" x1="0.123417" y1="17.3173" x2="58.1234" y2="17.3173" gradientUnits="userSpaceOnUse">
<stop stop-color="#F62C84"/>
<stop offset="0.23" stop-color="#E1309C"/>
<stop offset="0.72" stop-color="#AB38D9"/>
<stop offset="1" stop-color="#8A3EFF"/>
</linearGradient>
</defs>
</svg>
