<svg width="58" height="35" viewBox="0 0 58 35" fill="none" xmlns="http://www.w3.org/2000/svg">
<path d="M28.8666 34.5266C28.1234 34.5265 27.3876 34.3799 26.7012 34.0951C26.0148 33.8102 25.3914 33.3927 24.8666 32.8666L1.52658 9.53658C0.523421 8.46419 -0.0236919 7.0439 0.000787413 5.57565C0.0252668 4.1074 0.619421 2.70613 1.65778 1.66778C2.69613 0.629421 4.0974 0.035267 5.56565 0.0107876C7.0339 -0.0136917 8.45419 0.533421 9.52658 1.53658L28.8666 20.8466L48.1966 1.52658C49.269 0.523421 50.6893 -0.0236919 52.1575 0.000787413C53.6258 0.0252668 55.027 0.619423 56.0654 1.65778C57.1037 2.69613 57.6979 4.0974 57.7224 5.56565C57.7469 7.0339 57.1997 8.45419 56.1966 9.52658L32.8666 32.8666C32.3418 33.3927 31.7183 33.8102 31.0319 34.0951C30.3456 34.3799 29.6097 34.5265 28.8666 34.5266ZM5.53658 1.86658C4.56289 1.86725 3.6287 2.2517 2.93658 2.93658C2.59595 3.27619 2.32601 3.67993 2.14235 4.12449C1.95869 4.56904 1.86497 5.04559 1.86658 5.52658C1.86507 6.50071 2.24985 7.4357 2.93658 8.12659L26.2766 31.4566C26.6165 31.797 27.0202 32.0671 27.4647 32.2514C27.9091 32.4357 28.3855 32.5306 28.8666 32.5306C29.3477 32.5306 29.8241 32.4357 30.2685 32.2514C30.7129 32.0671 31.1166 31.797 31.4566 31.4566L54.7966 8.12659C55.4758 7.43648 55.8548 6.50591 55.8509 5.53762C55.8471 4.56934 55.4607 3.64181 54.7761 2.95712C54.0914 2.27243 53.1638 1.88607 52.1955 1.88223C51.2273 1.87838 50.2967 2.25736 49.6066 2.93658L29.6066 22.9366C29.5136 23.0303 29.403 23.1047 29.2812 23.1555C29.1593 23.2062 29.0286 23.2324 28.8966 23.2324C28.7646 23.2324 28.6339 23.2062 28.512 23.1555C28.3902 23.1047 28.2795 23.0303 28.1866 22.9366L8.18658 2.93658C7.83888 2.59007 7.4252 2.31683 6.97002 2.13304C6.51483 1.94925 6.02741 1.85864 5.53658 1.86658Z" fill="url(#paint0_linear_28_30)"/>
<defs>
<linearGradient id="paint0_linear_28_30" x1="-0.133416" y1="17.1966" x2="57.8666" y2="17.1966" gradientUnits="userSpaceOnUse">
<stop stop-color="#F62C84"/>
<stop offset="0.23" stop-color="#E1309C"/>
<stop offset="0.72" stop-color="#AB38D9"/>
<stop offset="1" stop-color="#8A3EFF"/>
</linearGradient>
</defs>
</svg>
